<?xml version="1.0" encoding="utf-8"?>
<!-- generated at drububu.com  -->
<!DOCTYPE svg PUBLIC "-//W3C//DTD SVG 1.1//EN" "http://www.w3.org/Graphics/SVG/1.1/DTD/svg11.dtd">
<svg version="1.1" preserveAspectRatio="xMinYMin meet" xmlns="http://www.w3.org/2000/svg" xmlns:xlink="http://www.w3.org/1999/xlink" x="0px" y="0px" width="16px" height="16px" viewBox="0 0 16 16">
<path d="M0 0h1v1h-1z" fill="rgb(53,43,49)"/>
<path d="M1 0h5v1h1v13h-1v1h-5v-1h-1v-13h1z" fill="rgb(75,109,133)"/>
<path d="M6 0h3v1h-1v13h1v1h5v-1h1v-13h-1v-1h2v16h-16v-2h1v1h5v-1h1v-13h-1z" fill="rgb(53,43,49)"/>
<path d="M9 0h5v1h1v13h-1v1h-5v-1h-1v-13h1z" fill="rgb(75,109,133)"/>
</svg>
