<?xml version="1.0" encoding="UTF-8" standalone="no"?>
<!-- generated at drububu.com  -->

<svg
   xmlns:dc="http://purl.org/dc/elements/1.1/"
   xmlns:cc="http://creativecommons.org/ns#"
   xmlns:rdf="http://www.w3.org/1999/02/22-rdf-syntax-ns#"
   xmlns:svg="http://www.w3.org/2000/svg"
   xmlns="http://www.w3.org/2000/svg"
   xmlns:sodipodi="http://sodipodi.sourceforge.net/DTD/sodipodi-0.dtd"
   xmlns:inkscape="http://www.inkscape.org/namespaces/inkscape"
   version="1.1"
   preserveAspectRatio="xMinYMin meet"
   x="0px"
   y="0px"
   width="16px"
   height="16px"
   viewBox="0 0 16 16"
   id="svg3422"
   inkscape:version="0.91 r13725"
   sodipodi:docname="monster.svg">
  <metadata
     id="metadata3468">
    <rdf:RDF>
      <cc:Work
         rdf:about="">
        <dc:format>image/svg+xml</dc:format>
        <dc:type
           rdf:resource="http://purl.org/dc/dcmitype/StillImage" />
      </cc:Work>
    </rdf:RDF>
  </metadata>
  <defs
     id="defs3466" />
  <sodipodi:namedview
     pagecolor="#ffffff"
     bordercolor="#666666"
     borderopacity="1"
     objecttolerance="10"
     gridtolerance="10"
     guidetolerance="10"
     inkscape:pageopacity="0"
     inkscape:pageshadow="2"
     inkscape:window-width="951"
     inkscape:window-height="663"
     id="namedview3464"
     showgrid="false"
     inkscape:zoom="42.514795"
     inkscape:cx="4.2538896"
     inkscape:cy="8.8037818"
     inkscape:window-x="33"
     inkscape:window-y="0"
     inkscape:window-maximized="0"
     inkscape:current-layer="svg3422" />
  <path
     d="M6 2h4v1h-4z"
     fill="rgb(199,211,183)"
     id="path3426" />
  <path
     d="M4 3h2v1h-2z"
     fill="rgb(199,211,183)"
     id="path3428" />
  <path
     d="M6 3h4v1h2v1h2v1h1v4h-1v1h-1v1h-2v-2h1v-2h-1v-2h-2v-1h-2v1h-2v2h-1v2h1  v2h-4v-1h-1v-4h1v-1h1v-1h2v-1h2z"
     fill="rgb(170,191,156)"
     id="path3430" />
  <path
     d="M10 3h2v1h-2z"
     fill="rgb(199,211,183)"
     id="path3432" />
  <path
     d="M3 4h1v1h-1z"
     fill="rgb(199,211,183)"
     id="path3434" />
  <path
     d="M12 4h1v1h-1z"
     fill="rgb(199,211,183)"
     id="path3436" />
  <path
     d="M7 5h2v1h-2z"
     fill="rgb(10,30,49)"
     id="path3438" />
  <path
     d="M5 6h1v1h-1z"
     fill="rgb(10,30,49)"
     id="path3440" />
  <path
     d="M6 6h4v1h1v2h-2v1h-2v-1h-2v-2h1z"
     fill="rgb(31,60,78)"
     id="path3442" />
  <path
     d="M10 6h1v1h-1z"
     fill="rgb(10,30,49)"
     id="path3444" />
  <path
     d="M4 8h1v2h-1z"
     fill="rgb(10,30,49)"
     id="path3446" />
  <path
     d="M11 8h1v2h-1z"
     fill="rgb(10,30,49)"
     id="path3448" />
  <path
     d="M5 9h1v1h-1z"
     fill="rgb(204,0,0)"
     id="path3450" />
  <path
     d="M6 9h1v2h-2v-1h1z"
     fill="rgb(10,30,49)"
     id="path3452" />
  <path
     d="M9 9h1v1h1v1h-2z"
     fill="rgb(10,30,49)"
     id="path3454" />
  <path
     d="M10 9h1v1h-1z"
     fill="rgb(204,0,0)"
     id="path3456" />
  <path
     d="M7 10h2v1h1v1h-1v1h-2v-1h-1v-1h1z"
     fill="rgb(130,171,142)"
     id="path3458" />
  <path
     d="M3 12h2v2h-2z"
     fill="rgb(31,60,78)"
     id="path3460" />
  <path
     d="M11 12h2v2h-2z"
     fill="rgb(31,60,78)"
     id="path3462" />
</svg>
