<?xml version="1.0" encoding="UTF-8" standalone="no"?>
<!-- generated at drububu.com  -->

<svg
   xmlns:dc="http://purl.org/dc/elements/1.1/"
   xmlns:cc="http://creativecommons.org/ns#"
   xmlns:rdf="http://www.w3.org/1999/02/22-rdf-syntax-ns#"
   xmlns:svg="http://www.w3.org/2000/svg"
   xmlns="http://www.w3.org/2000/svg"
   xmlns:sodipodi="http://sodipodi.sourceforge.net/DTD/sodipodi-0.dtd"
   xmlns:inkscape="http://www.inkscape.org/namespaces/inkscape"
   version="1.1"
   preserveAspectRatio="xMinYMin meet"
   x="0px"
   y="0px"
   width="16px"
   height="16px"
   viewBox="0 0 16 16"
   id="svg3680"
   inkscape:version="0.91 r13725"
   sodipodi:docname="human.svg">
  <metadata
     id="metadata3714">
    <rdf:RDF>
      <cc:Work
         rdf:about="">
        <dc:format>image/svg+xml</dc:format>
        <dc:type
           rdf:resource="http://purl.org/dc/dcmitype/StillImage" />
      </cc:Work>
    </rdf:RDF>
  </metadata>
  <defs
     id="defs3712" />
  <sodipodi:namedview
     pagecolor="#ffffff"
     bordercolor="#666666"
     borderopacity="1"
     objecttolerance="10"
     gridtolerance="10"
     guidetolerance="10"
     inkscape:pageopacity="0"
     inkscape:pageshadow="2"
     inkscape:window-width="640"
     inkscape:window-height="480"
     id="namedview3710"
     showgrid="false"
     inkscape:zoom="14.75"
     inkscape:cx="8"
     inkscape:cy="8"
     inkscape:window-x="0"
     inkscape:window-y="0"
     inkscape:window-maximized="0"
     inkscape:current-layer="svg3680" />
  <path
     d="M6 2h4v1h2v2h-1v1h-2v-1h-2v1h-2v-1h-1v-2h2z"
     fill="rgb(10,30,49)"
     id="path3684" />
  <path
     d="M2 5h3v1h1v5h-2v1h-3v-1h-1v-4h1v-1h1z"
     fill="rgb(31,60,78)"
     id="path3686" />
  <path
     d="M7 5h2v1h1v2h-1v1h-2v-1h-1v-2h1z"
     fill="rgb(170,191,156)"
     id="path3688" />
  <path
     d="M11 5h3v1h1v4h-1v1h-1v1h-1v-1h-2v-5h1z"
     fill="rgb(31,60,78)"
     id="path3690" />
  <path
     d="M3 6h1v1h-1z"
     fill="rgb(10,30,49)"
     id="path3692" />
  <path
     d="M12 6h1v1h-1z"
     fill="rgb(10,30,49)"
     id="path3694" />
  <path
     d="M1 8h1v1h-1z"
     fill="rgb(10,30,49)"
     id="path3696" />
  <path
     d="M6 8h1v1h2v-1h1v2h-1v1h-2v-1h-1z"
     fill="rgb(199,211,183)"
     id="path3698" />
  <path
     d="M13 8h1v1h-1z"
     fill="rgb(10,30,49)"
     id="path3700" />
  <path
     d="M4 9h1v1h-1z"
     fill="rgb(10,30,49)"
     id="path3702" />
  <path
     d="M11 9h1v1h-1z"
     fill="rgb(10,30,49)"
     id="path3704" />
  <path
     d="M4 11h2v2h-2z"
     fill="rgb(170,191,156)"
     id="path3706" />
  <path
     d="M10 11h2v2h-2z"
     fill="rgb(170,191,156)"
     id="path3708" />
</svg>
