<?xml version="1.0" encoding="UTF-8" standalone="no"?>
<!-- generated at drububu.com  -->

<svg
   xmlns:dc="http://purl.org/dc/elements/1.1/"
   xmlns:cc="http://creativecommons.org/ns#"
   xmlns:rdf="http://www.w3.org/1999/02/22-rdf-syntax-ns#"
   xmlns:svg="http://www.w3.org/2000/svg"
   xmlns="http://www.w3.org/2000/svg"
   xmlns:sodipodi="http://sodipodi.sourceforge.net/DTD/sodipodi-0.dtd"
   xmlns:inkscape="http://www.inkscape.org/namespaces/inkscape"
   version="1.1"
   preserveAspectRatio="xMinYMin meet"
   x="0px"
   y="0px"
   width="16px"
   height="16px"
   viewBox="0 0 16 16"
   id="svg3498"
   inkscape:version="0.91 r13725"
   sodipodi:docname="kid.svg">
  <metadata
     id="metadata3596">
    <rdf:RDF>
      <cc:Work
         rdf:about="">
        <dc:format>image/svg+xml</dc:format>
        <dc:type
           rdf:resource="http://purl.org/dc/dcmitype/StillImage" />
      </cc:Work>
    </rdf:RDF>
  </metadata>
  <defs
     id="defs3594" />
  <sodipodi:namedview
     pagecolor="#ffffff"
     bordercolor="#666666"
     borderopacity="1"
     objecttolerance="10"
     gridtolerance="10"
     guidetolerance="10"
     inkscape:pageopacity="0"
     inkscape:pageshadow="2"
     inkscape:window-width="919"
     inkscape:window-height="668"
     id="namedview3592"
     showgrid="false"
     inkscape:zoom="30.0625"
     inkscape:cx="8"
     inkscape:cy="8"
     inkscape:window-x="150"
     inkscape:window-y="0"
     inkscape:window-maximized="0"
     inkscape:current-layer="svg3498" />
  <path
     d="M6 1h6v1h-6z"
     fill="rgb(17,17,17)"
     id="path3502" />
  <path
     d="M4 2h2v1h-1v1h1v1h1v3h1v1h2v-1h1v-3h1v-1h1v-1h-1v-1h2v2h1v2h-1v-1h-1v1  h-1v4h2v1h1v-5h1v6h-1v1h-2v-2h-2v-1h-4v1h-2v2h1v1h-2v-1h-1v-1h-2v-1h-1v-3h1v-1  h1v2h-1v1h1v1h2v-1h2v-1h-1v-2h1v-1h-1v-1h-1z"
     fill="rgb(17,17,17)"
     id="path3504" />
  <path
     d="M6 2h6v3h-1v-1h-1v-1h-2v1h-2z"
     fill="rgb(127,25,22)"
     id="path3506" />
  <path
     d="M5 3h1v1h-1z"
     fill="rgb(87,3,1)"
     id="path3508" />
  <path
     d="M8 3h2v1h-2z"
     fill="rgb(17,17,17)"
     id="path3510" />
  <path
     d="M12 3h1v1h-1z"
     fill="rgb(87,3,1)"
     id="path3512" />
  <path
     d="M6 4h1v1h-1z"
     fill="rgb(87,3,1)"
     id="path3514" />
  <path
     d="M7 4h1v1h-1z"
     fill="rgb(17,17,17)"
     id="path3516" />
  <path
     d="M8 4h2v2h1v2h-4v-2h1z"
     fill="rgb(22,41,85)"
     id="path3518" />
  <path
     d="M10 4h1v1h-1z"
     fill="rgb(17,17,17)"
     id="path3520" />
  <path
     d="M2 5h2v1h-1v1h-1z"
     fill="rgb(17,17,17)"
     id="path3522" />
  <path
     d="M4 5h1v1h-1z"
     fill="rgb(128,101,21)"
     id="path3524" />
  <path
     d="M7 5h1v1h-1z"
     fill="rgb(6,21,57)"
     id="path3526" />
  <path
     d="M10 5h1v1h-1z"
     fill="rgb(6,21,57)"
     id="path3528" />
  <path
     d="M13 5h1v1h-1z"
     fill="rgb(128,101,21)"
     id="path3530" />
  <path
     d="M3 6h3v1h-2v1h-1z"
     fill="rgb(170,142,57)"
     id="path3532" />
  <path
     d="M12 6h1v2h-1z"
     fill="rgb(128,101,21)"
     id="path3534" />
  <path
     d="M13 6h2v2h-1v2h-2v-2h1z"
     fill="rgb(170,142,57)"
     id="path3536" />
  <path
     d="M2 7h1v1h-1z"
     fill="rgb(128,101,21)"
     id="path3538" />
  <path
     d="M4 7h1v1h-1z"
     fill="rgb(128,101,21)"
     id="path3540" />
  <path
     d="M2 8h1v1h1v-1h1v2h-1v1h-1v-1h-1z"
     fill="rgb(170,142,57)"
     id="path3542" />
  <path
     d="M3 8h1v1h-1z"
     fill="rgb(128,101,21)"
     id="path3544" />
  <path
     d="M8 8h2v1h-2z"
     fill="rgb(46,65,114)"
     id="path3546" />
  <path
     d="M14 8h1v3h-1z"
     fill="rgb(212,186,106)"
     id="path3548" />
  <path
     d="M1 9h1v1h-1z"
     fill="rgb(128,101,21)"
     id="path3550" />
  <path
     d="M5 9h1v1h-1z"
     fill="rgb(212,186,106)"
     id="path3552" />
  <path
     d="M2 10h1v1h-1z"
     fill="rgb(128,101,21)"
     id="path3554" />
  <path
     d="M7 10h1v1h-1z"
     fill="rgb(87,3,1)"
     id="path3556" />
  <path
     d="M8 10h2v2h-1v-1h-1z"
     fill="rgb(127,25,22)"
     id="path3558" />
  <path
     d="M10 10h1v1h-1z"
     fill="rgb(87,3,1)"
     id="path3560" />
  <path
     d="M5 11h1v1h-1z"
     fill="rgb(255,205,148)"
     id="path3564" />
  <path
     d="M6 11h1v1h-1z"
     fill="rgb(234,192,134)"
     id="path3566" />
  <path
     d="M7 11h1v1h-1z"
     fill="rgb(17,17,17)"
     id="path3568" />
  <path
     d="M8 11h1v1h-1z"
     fill="rgb(87,3,1)"
     id="path3570" />
  <path
     d="M10 11h1v2h-3v-1h2z"
     fill="rgb(17,17,17)"
     id="path3572" />
  <path
     d="M11 11h1v1h-1z"
     fill="rgb(255,224,189)"
     id="path3574" />
  <path
     d="M12 11h1v1h-1z"
     fill="rgb(234,192,134)"
     id="path3576" />
  <path
     d="M5 12h3v1h-3z"
     fill="rgb(255,224,189)"
     id="path3578" />
  <path
     d="M11 12h1v1h-1z"
     fill="rgb(255,205,148)"
     id="path3580" />
  <path
     d="M12 12h1v1h-1z"
     fill="rgb(255,224,189)"
     id="path3582" />
  <path
     d="M6 13h1v1h-1z"
     fill="rgb(234,192,134)"
     id="path3584" />
  <path
     d="M7 13h1v1h-1z"
     fill="rgb(17,17,17)"
     id="path3586" />
  <path
     d="M11 13h2v1h-2z"
     fill="rgb(17,17,17)"
     id="path3588" />
  <path
     d="M6 14h1v1h-1z"
     fill="rgb(17,17,17)"
     id="path3590" />
</svg>
